# xmcd CD database file
#
# Track frame offsets:
#	150
#	21174
#	33357
#	40931
#	57471
#	78773
#	97195
#	110055
#	122300
#	137073
#	150063
#	169560
#	185495
#	199904
#	213863
#	227667
#	247440
#	259363
#	272213
#	283579
#	298519
#	319097
#
# Disc length: 4466 seconds
#
# Revision: 0
# Processed by: cddbd v1.5.2PL0 Copyright (c) Steve Scherf et al.
# Submitted via: CDex 1.82
#
DISCID=40117016
DTITLE=Hermann Bauer jun. Kollektion - Jazz and More
DYEAR=2003
DGENRE=Jazz
TTITLE0=They can't take that away from me/L.Amstrong-E.Fitzgerald
TTITLE1=Misty/Teddy Wilson
TTITLE2=I left my heart in San Francisco/R. Sharon Trio
TTITLE3=Donn't worry about me/The Sax section
TTITLE4=The look of love/Diane Krall
TTITLE5=Me and Mrs. Jones - Monk Mongomery
TTITLE6=Something stupid/ R. Williams - N.Kidman
TTITLE7=Satin doll/Lionel Hampton
TTITLE8=Little white lies/Count Basie Octet
TTITLE9=Girl talk/Neal Hefti
TTITLE10=One for my baby/ R.Williams
TTITLE11=Swing is here/Ted McNabb and Company
TTITLE12=Please be kind/ The Duke Ellington Orchestra
TTITLE13=Dont't know why/Norah Jones
TTITLE14=Song from M.A.S.H./Paul Desmond
TTITLE15=Imagintion/I.Jacquet
TTITLE16=I let a song go out of my herat/Rosemary Clooney
TTITLE17=Night and day - Duke Ellington
TTITLE18=If I could be with you one hour tonight/ Teddy Wilson
TTITLE19=Come away with me - Norah Jones
TTITLE20=Peaceful Hideaway/Kirk Whalum
TTITLE21=Time after Time - Miles Davis
EXTD=YEAR: 2003
EXTT0=
EXTT1=
EXTT2=
EXTT3=
EXTT4=
EXTT5=
EXTT6=
EXTT7=
EXTT8=
EXTT9=
EXTT10=
EXTT11=
EXTT12=
EXTT13=
EXTT14=
EXTT15=
EXTT16=
EXTT17=
EXTT18=
EXTT19=
EXTT20=
EXTT21=
PLAYORDER=
